<?xml version="1.0" encoding="UTF-8"?>
<svg width="3559px" height="3756px" viewBox="0 0 3559 3756" version="1.1" xmlns="http://www.w3.org/2000/svg" xmlns:xlink="http://www.w3.org/1999/xlink">
    <!-- Generator: Sketch 54.1 (76490) - https://sketchapp.com -->
    <title>Untitled</title>
    <desc>Created with Sketch.</desc>
    <g id="Page-1" stroke="none" stroke-width="1" fill="none" fill-rule="evenodd">
        <g id="Group">
            <g id="SVG-Layer" transform="translate(464.000000, 0.000000)" fill="#2C82C9">
                <path d="M1356.493,2091.19 C1239.305,1778.009 1122.116,1464.829 1004.928,1151.649 C869.236,1582.035 733.544,2012.42 597.852,2442.805 C398.584,2534.387 199.316,2625.969 0.049,2717.55 C339.753,1811.7 679.457,905.85 1019.161,0 C1268.246,633.953 1517.331,1267.905 1766.416,1901.858 C1629.775,1964.968 1493.134,2028.079 1356.493,2091.19 Z" id="Path"></path>
            </g>
            <g id="SVG-Layer" transform="translate(2052.000000, 2545.000000)" fill="#2C82C9">
                <path d="M0.688,228.678 C251.67,556.094 502.653,883.51 753.636,1210.925 C628.856,807.587 504.077,404.249 379.297,0.911 C253.094,76.833 126.891,152.756 0.688,228.678 Z" id="Path"></path>
            </g>
            <g id="SVG-Layer" transform="translate(0.000000, 1540.000000)" fill="#61BD6D">
                <path d="M3559,15 C3357.667,335 3156.333,655 2955,975 C2940,829.667 2925,684.333 2910,539 C1940,1098 970,1657 0,2216 C104.667,1969 209.333,1722 314,1475 C1162,1080.333 2010,685.667 2858,291 C2766,194 2674,97 2582,0 C2907.667,5 3233.333,10 3559,15 Z" id="Path"></path>
            </g>
        </g>
    </g>
</svg>